<svg xmlns="http://www.w3.org/2000/svg" width="65" height="108" viewBox="0 0 65 108">
  <path id="Path_44" data-name="Path 44" d="M54.958,44.68v88.6q0,8.779,2.964,11.943t10.118,3.164v4.287q-4.088-.2-11.958-.51t-16.25-.306q-10.833,0-20.849.306t-15.535.51v-4.287q8.789,0,13.593-3.369t4.8-13.372V81.633q0-9.8-1.635-14.5a9.223,9.223,0,0,0-5.723-6.125A36.081,36.081,0,0,0,3.04,59.584V55.092A195.948,195.948,0,0,0,33.7,52.438,63.657,63.657,0,0,0,54.958,44.68Z" transform="translate(-3.04 -44.68)" fill="#cb6942"/>
</svg>
