<svg xmlns="http://www.w3.org/2000/svg" width="94" height="110" viewBox="0 0 94 110">
  <path id="Path_45" data-name="Path 45" d="M53.5,44.44q16.383,0,25.906,6.76t9.523,19.255a25.88,25.88,0,0,1-4.1,14.339A52.688,52.688,0,0,1,74.081,96.675a138.122,138.122,0,0,1-14.233,10.345q-7.577,4.814-14.745,9.525a85.526,85.526,0,0,0-12.288,9.628H78.074q8.4,0,10.649-1.946t3.072-6.862H96.3q0,14.544.2,22.737t.614,14.339a45.426,45.426,0,0,0-6.758-.615q-4.915-.2-11.264-.307t-12.492-.1H3.12v-4.1q5.734-5.736,14.028-13.007a193.509,193.509,0,0,0,16.383-16.285,96.981,96.981,0,0,0,13.619-19.46A47.44,47.44,0,0,0,52.68,78.034q0-10.652-4.71-15.568T34.044,57.55a30.708,30.708,0,0,0-15.462,3.79A39.22,39.22,0,0,0,6.6,72.3L3.12,70.045A60.456,60.456,0,0,1,14.179,57.038,47.8,47.8,0,0,1,30.357,47.82Q39.983,44.44,53.5,44.44Z" transform="translate(-3.12 -44.44)" fill="#cb6942"/>
</svg>
