<svg xmlns="http://www.w3.org/2000/svg" width="76.771" height="82" viewBox="0 0 76.771 82">
  <path id="Icon_map-health" data-name="Icon map-health" d="M77.491,28.053a1.661,1.661,0,0,0-1.6-1.708H55.1a1.661,1.661,0,0,1-1.6-1.708V2.428A1.661,1.661,0,0,0,51.9.72H26.31a1.661,1.661,0,0,0-1.6,1.708V24.637a1.661,1.661,0,0,1-1.6,1.708H2.319a1.661,1.661,0,0,0-1.6,1.708V55.387a1.661,1.661,0,0,0,1.6,1.708H23.112a1.661,1.661,0,0,1,1.6,1.708V81.012a1.661,1.661,0,0,0,1.6,1.708H51.9a1.661,1.661,0,0,0,1.6-1.708V58.8A1.661,1.661,0,0,1,55.1,57.1H75.892a1.661,1.661,0,0,0,1.6-1.708Z" transform="translate(-0.72 -0.72)" fill="#636363"/>
</svg>
