<svg xmlns="http://www.w3.org/2000/svg" width="82.453" height="82.453" viewBox="0 0 82.453 82.453">
  <path id="Icon_awesome-phone" data-name="Icon awesome-phone" d="M79.457,3.963,62.709.1A3.89,3.89,0,0,0,58.28,2.336l-7.73,18.036a3.855,3.855,0,0,0,1.111,4.509l9.759,7.987A59.683,59.683,0,0,1,32.885,61.4L24.9,51.646a3.861,3.861,0,0,0-4.509-1.111L2.352,58.264A3.911,3.911,0,0,0,.1,62.709L3.962,79.457a3.864,3.864,0,0,0,3.768,3A74.713,74.713,0,0,0,82.452,7.731,3.86,3.86,0,0,0,79.457,3.963Z" transform="translate(0.001 0.001)" fill="#636363"/>
</svg>
